<svg width="17" height="16" viewBox="0 0 17 16" fill="none" xmlns="http://www.w3.org/2000/svg">
<path fill-rule="evenodd" clip-rule="evenodd" d="M6.05792 0.65359C6.31827 0.91394 6.31827 1.33605 6.05792 1.5964L3.31779 4.33653H11.3237C14.4179 4.33653 16.9263 6.84489 16.9263 9.9391C16.9263 13.0333 14.4179 15.5417 11.3237 15.5417H8.63139C8.2632 15.5417 7.96472 15.2432 7.96472 14.875C7.96472 14.5068 8.2632 14.2083 8.63139 14.2083H11.3237C13.6815 14.2083 15.5929 12.2969 15.5929 9.9391C15.5929 7.58126 13.6815 5.66987 11.3237 5.66987H3.31779L6.05792 8.41C6.31827 8.67035 6.31827 9.09246 6.05792 9.35281C5.79757 9.61316 5.37546 9.61316 5.11511 9.35281L0.765503 5.0032L5.11511 0.65359C5.37546 0.393241 5.79757 0.393241 6.05792 0.65359Z" fill="#CAD4DD"/>
</svg>
