<svg width="20" height="20" viewBox="0 0 20 20" fill="none" xmlns="http://www.w3.org/2000/svg">
<path fill-rule="evenodd" clip-rule="evenodd" d="M5.83203 3.9974C4.35927 3.9974 3.16537 5.1913 3.16537 6.66406L3.16537 11.9613L5.85204 9.44257C7.12389 8.25021 9.1203 8.31014 10.3183 9.57664L12.2537 11.6226C12.5067 11.8901 12.495 12.312 12.2275 12.565C11.96 12.8181 11.5381 12.8063 11.2851 12.5389L9.34972 10.4929C8.65611 9.75967 7.5003 9.72497 6.76396 10.4153L3.19928 13.7572C3.40341 15.0272 4.50442 15.9974 5.83203 15.9974L10.4154 15.9974C10.7836 15.9974 11.082 16.2959 11.082 16.6641C11.082 17.0323 10.7836 17.3307 10.4154 17.3307H5.83203C3.71865 17.3307 1.98807 15.6918 1.84202 13.6155C1.83253 13.5613 1.82982 13.5061 1.83382 13.4514C1.83263 13.4113 1.83203 13.3711 1.83203 13.3307L1.83203 6.66406C1.83203 4.45492 3.62289 2.66406 5.83203 2.66406L14.1654 2.66406C16.3745 2.66406 18.1654 4.45492 18.1654 6.66406V11.2474C18.1654 11.6156 17.8669 11.9141 17.4987 11.9141C17.1305 11.9141 16.832 11.6156 16.832 11.2474V6.66406C16.832 5.1913 15.6381 3.9974 14.1654 3.9974L5.83203 3.9974ZM12.7591 6.60197C12.2068 6.60197 11.7591 7.04968 11.7591 7.60197C11.7591 8.15425 12.2068 8.60197 12.7591 8.60197C13.3114 8.60197 13.7591 8.15425 13.7591 7.60197C13.7591 7.04968 13.3114 6.60197 12.7591 6.60197ZM10.4258 7.60197C10.4258 6.3133 11.4705 5.26864 12.7591 5.26864C14.0478 5.26864 15.0925 6.3133 15.0925 7.60197C15.0925 8.89063 14.0478 9.9353 12.7591 9.9353C11.4705 9.9353 10.4258 8.89063 10.4258 7.60197Z" fill="white"/>
<path d="M14.8292 11.1933L15.0007 10.3359L15.1721 11.1933C15.4888 12.7767 16.7265 14.0144 18.31 14.3311L19.1673 14.5026L18.31 14.6741C16.7265 14.9907 15.4888 16.2285 15.1721 17.8119L15.0007 18.6693L14.8292 17.8119C14.5125 16.2285 13.2748 14.9907 11.6913 14.6741L10.834 14.5026L11.6913 14.3311C13.2748 14.0144 14.5125 12.7767 14.8292 11.1933Z" fill="white"/>
</svg>
